<?xml version="1.0" encoding="UTF-8" standalone="no"?>
<!-- Created with Inkscape (http://www.inkscape.org/) -->

<svg
   width="204.80487mm"
   height="204.80487mm"
   viewBox="0 0 204.80487 204.80487"
   version="1.1"
   id="svg1"
   xml:space="preserve"
   inkscape:version="1.4 (e7c3feb100, 2024-10-09)"
   sodipodi:docname="plateau.svg"
   xmlns:inkscape="http://www.inkscape.org/namespaces/inkscape"
   xmlns:sodipodi="http://sodipodi.sourceforge.net/DTD/sodipodi-0.dtd"
   xmlns="http://www.w3.org/2000/svg"
   xmlns:svg="http://www.w3.org/2000/svg"><sodipodi:namedview
     id="namedview1"
     pagecolor="#ffffff"
     bordercolor="#666666"
     borderopacity="1.0"
     inkscape:showpageshadow="2"
     inkscape:pageopacity="0.0"
     inkscape:pagecheckerboard="0"
     inkscape:deskcolor="#d1d1d1"
     inkscape:document-units="mm"
     showgrid="true"
     inkscape:zoom="0.80354938"
     inkscape:cx="319.831"
     inkscape:cy="369.61014"
     inkscape:window-width="1918"
     inkscape:window-height="1153"
     inkscape:window-x="0"
     inkscape:window-y="20"
     inkscape:window-maximized="1"
     inkscape:current-layer="layer1"><inkscape:grid
       id="grid1"
       units="mm"
       originx="9.0999998e-06"
       originy="-50.270834"
       spacingx="0.26458333"
       spacingy="0.26458334"
       empcolor="#0099e5"
       empopacity="0.30196078"
       color="#0099e5"
       opacity="0.14901961"
       empspacing="5"
       enabled="true"
       visible="true" /></sodipodi:namedview><defs
     id="defs1" /><g
     inkscape:label="Calque 1"
     inkscape:groupmode="layer"
     id="layer1"
     transform="translate(9.1e-6,-50.270836)"><g
       id="g25"
       transform="translate(-179.91667)"><g
         id="g23"
         transform="translate(-2.6458391)"><rect
           style="fill:#78c9b1;fill-opacity:1;stroke-width:0.079375;stroke-linecap:round;stroke-linejoin:round;paint-order:stroke fill markers"
           id="rect1"
           width="204.80487"
           height="204.80487"
           x="182.5625"
           y="50.270836"
           ry="3.6219511" /><g
           id="g22"><rect
             style="fill:#4a3b97;fill-opacity:1;stroke-width:0.079375;stroke-linecap:round;stroke-linejoin:round;paint-order:stroke fill markers"
             id="rect2"
             width="15.874994"
             height="15.875004"
             x="190.5"
             y="58.208332"
             ry="0" /><path
             id="rect3"
             style="fill:#ffffff;fill-opacity:1;stroke-width:0.079375;stroke-linecap:round;stroke-linejoin:round;paint-order:stroke fill markers"
             d="m 209.02083,58.208333 v 15.875 h 15.875 v -15.875 z m 18.52084,0 v 15.875 h 15.875 v -15.875 z m 18.52083,0 v 15.875 h 15.875 v -15.875 z m 18.52083,0 v 15.875 h 15.875 v -15.875 z m 18.52084,0 v 15.875 h 15.875 v -15.875 z M 190.5,76.756038 v 15.875 h 15.875 v -15.875 z m 0,18.520834 v 15.874998 h 15.875 V 95.276872 Z m 0,18.520838 v 15.875 h 15.875 v -15.875 z m 0,18.52083 v 15.875 h 15.875 v -15.875 z m 0,18.52083 v 15.875 h 15.875 v -15.875 z m 0,18.52084 v 15.875 h 15.875 v -15.875 z m 0,18.52083 v 15.875 h 15.875 v -15.875 z m 0,18.52083 v 15.875 h 15.875 v -15.875 z m 18.52083,18.49396 v 15.875 h 15.875 v -15.875 z m 18.52084,0 v 15.875 h 15.875 v -15.875 z m 18.52083,0 v 15.875 h 15.875 v -15.875 z m 18.52083,0 v 15.875 h 15.875 v -15.875 z m 18.52084,0 v 15.875 h 15.875 v -15.875 z m 18.52083,0 v 15.875 H 317.5 v -15.875 z m 18.52083,0 v 15.875 h 15.875 v -15.875 z m 18.52084,0 v 15.875 h 15.875 v -15.875 z m 18.52083,0 v 15.875 h 15.875 v -15.875 z M 190.5,224.92271 v 15.875 h 15.875 v -15.875 z" /></g></g><rect
         style="fill:#4a3b97;fill-opacity:1;stroke-width:0.0777002;stroke-linecap:round;stroke-linejoin:round;paint-order:stroke fill markers"
         id="rect23"
         width="69.930199"
         height="31.080091"
         x="56.70834"
         y="239.68283"
         transform="rotate(-45)" /><rect
         style="fill:#ef467d;fill-opacity:1;stroke-width:0.0777002;stroke-linecap:round;stroke-linejoin:round;paint-order:stroke fill markers"
         id="rect24"
         width="69.930199"
         height="31.080091"
         x="56.70834"
         y="336.19543"
         transform="rotate(-45)" /><circle
         style="fill:#41beb2;fill-opacity:1;stroke-width:0.0777002;stroke-linecap:round;stroke-linejoin:round;paint-order:stroke fill markers"
         id="path24"
         cx="91.673447"
         cy="303.47919"
         r="24.60507"
         transform="rotate(-45)" /></g></g></svg>
